<svg width="51" height="108" viewBox="0 0 51 108" fill="none" xmlns="http://www.w3.org/2000/svg">
<path d="M46.4824 108C45.8913 108.003 45.3053 107.89 44.7581 107.666C44.2109 107.442 43.7131 107.112 43.2935 106.695L6.59776 69.9364C4.50636 67.8467 2.84707 65.3643 1.71492 62.6312C0.582766 59.8981 0 56.9682 0 54.0092C0 51.0501 0.582766 48.1202 1.71492 45.3871C2.84707 42.6541 4.50636 40.1716 6.59776 38.0819L43.2935 1.32319C43.7122 0.903684 44.2094 0.570917 44.7566 0.343885C45.3037 0.116852 45.8902 4.42017e-09 46.4824 0C47.0747 -4.42017e-09 47.6611 0.116852 48.2083 0.343885C48.7555 0.570917 49.2526 0.903684 49.6714 1.32319C50.0902 1.74269 50.4224 2.24071 50.649 2.78881C50.8757 3.33692 50.9923 3.92437 50.9923 4.51764C50.9923 5.1109 50.8757 5.69836 50.649 6.24646C50.4224 6.79457 50.0902 7.29259 49.6714 7.71209L12.9757 44.4708C10.4524 47.0016 9.03504 50.4323 9.03504 54.0092C9.03504 57.5861 10.4524 61.0167 12.9757 63.5475L49.6714 100.306C50.0924 100.725 50.4265 101.222 50.6546 101.77C50.8826 102.319 51 102.907 51 103.501C51 104.095 50.8826 104.683 50.6546 105.231C50.4265 105.779 50.0924 106.277 49.6714 106.695C49.2517 107.112 48.754 107.442 48.2068 107.666C47.6595 107.89 47.0736 108.003 46.4824 108Z" fill="#797A7A"/>
</svg>
