<svg width="51" height="108" viewBox="0 0 51 108" fill="none" xmlns="http://www.w3.org/2000/svg">
<path d="M4.51756 108C3.92645 108.003 3.34047 107.89 2.79324 107.666C2.246 107.442 1.74827 107.112 1.32858 106.695C0.9076 106.277 0.573458 105.779 0.34543 105.231C0.117401 104.683 0 104.095 0 103.501C0 102.907 0.117401 102.319 0.34543 101.77C0.573458 101.222 0.9076 100.725 1.32858 100.306L38.0243 63.5475C40.5476 61.0167 41.965 57.5861 41.965 54.0092C41.965 50.4323 40.5476 47.0016 38.0243 44.4708L1.32858 7.71209C0.482814 6.86487 0.00766523 5.71579 0.00766523 4.51764C0.00766523 3.31949 0.482814 2.17041 1.32858 1.32319C2.17435 0.475964 3.32146 0 4.51756 0C5.71366 0 6.86077 0.475964 7.70654 1.32319L44.4022 38.0819C46.4936 40.1716 48.1529 42.6541 49.2851 45.3871C50.4172 48.1202 51 51.0501 51 54.0092C51 56.9682 50.4172 59.8981 49.2851 62.6312C48.1529 65.3643 46.4936 67.8467 44.4022 69.9364L7.70654 106.695C7.28685 107.112 6.78912 107.442 6.24188 107.666C5.69465 107.89 5.10868 108.003 4.51756 108Z" fill="#797A7A"/>
</svg>
